<svg width="22" height="22" viewBox="0 0 22 22" fill="none" xmlns="http://www.w3.org/2000/svg">
<path d="M9.49157 10.4816L9.16937 10.1557C9.09768 10.2266 9.05137 10.3191 9.03758 10.4189L9.49157 10.4816ZM11.441 12.4973L11.508 12.9507C11.6082 12.936 11.7006 12.8884 11.771 12.8154L11.441 12.4973ZM9.16671 12.8333L8.71268 12.7706C8.69294 12.9135 8.74164 13.0573 8.84414 13.1589C8.94663 13.2605 9.09095 13.3078 9.23372 13.2867L9.16671 12.8333ZM7.33337 15.125C7.5865 15.125 7.79171 14.9197 7.79171 14.6666C7.79171 14.4134 7.5865 14.2083 7.33337 14.2083V15.125ZM18.3334 18.7916C18.5865 18.7916 18.7917 18.5864 18.7917 18.3333C18.7917 18.0801 18.5865 17.875 18.3334 17.875V18.7916ZM9.81387 10.8075L15.8533 4.83589L15.2088 4.18406L9.16937 10.1557L9.81387 10.8075ZM17.05 6.01741L11.111 12.1792L11.771 12.8154L17.71 6.65355L17.05 6.01741ZM11.3739 12.0439L9.09973 12.3799L9.23372 13.2867L11.508 12.9507L11.3739 12.0439ZM9.62073 12.896L9.9456 10.5444L9.03758 10.4189L8.71268 12.7706L9.62073 12.896ZM16.9935 4.79682C17.3592 5.112 17.3851 5.66977 17.05 6.01741L17.71 6.65355C18.4104 5.92695 18.3564 4.76116 17.5919 4.1024L16.9935 4.79682ZM15.8533 4.83589C16.1651 4.52764 16.6614 4.51062 16.9935 4.79682L17.5919 4.1024C16.8977 3.50422 15.8604 3.53977 15.2088 4.18406L15.8533 4.83589ZM7.33337 14.2083H5.50004V15.125H7.33337V14.2083ZM5.50004 18.7916H18.3334V17.875H5.50004V18.7916ZM3.20837 16.5C3.20837 17.7656 4.23439 18.7916 5.50004 18.7916V17.875C4.74065 17.875 4.12504 17.2593 4.12504 16.5H3.20837ZM5.50004 14.2083C4.23439 14.2083 3.20837 15.2343 3.20837 16.5H4.12504C4.12504 15.7406 4.74065 15.125 5.50004 15.125V14.2083Z" fill="#12234C"/>
</svg>
