<svg width="68" height="23" viewBox="0 0 68 23" fill="none" xmlns="http://www.w3.org/2000/svg">
<g clip-path="url(#clip0_2411_254)">
<path d="M0.894531 18.0823V0.870117H3.97179L9.43145 8.8369L14.8415 0.870117H17.9435V18.0823H15.0648V5.36987L9.40663 13.6563L3.77326 5.41905V18.0823H0.894531Z" fill="#4C86F9"/>
<path d="M24.2718 18.1316C23.031 18.1316 21.9266 17.8562 20.9588 17.3079C19.9909 16.7596 19.234 15.9998 18.6881 15.0334C18.1421 14.0671 17.8691 12.9508 17.8691 11.6893C17.8691 10.4279 18.1371 9.3116 18.6757 8.34526C19.2142 7.37892 19.9611 6.61913 20.9216 6.0708C21.882 5.52247 22.9813 5.24707 24.2222 5.24707C25.463 5.24707 26.5624 5.52247 27.5228 6.0708C28.4832 6.61913 29.2302 7.37892 29.7687 8.34526C30.3072 9.3116 30.5752 10.4279 30.5752 11.6893C30.5752 12.9508 30.3097 14.0671 29.7811 15.0334C29.2525 15.9998 28.508 16.7596 27.5476 17.3079C26.5872 17.8562 25.4953 18.1316 24.2718 18.1316ZM24.2718 15.599C24.9493 15.599 25.5548 15.4318 26.0834 15.0949C26.612 14.758 27.0264 14.3007 27.3242 13.7179C27.622 13.1352 27.7709 12.459 27.7709 11.6893C27.7709 10.9197 27.6171 10.2435 27.3118 9.66077C27.0066 9.07801 26.5872 8.62066 26.0586 8.28379C25.53 7.94692 24.917 7.77972 24.2222 7.77972C23.5273 7.77972 22.9143 7.94446 22.3857 8.2715C21.8571 8.59853 21.4427 9.05834 21.1449 9.64847C20.8471 10.2386 20.6982 10.9197 20.6982 11.6893C20.6982 12.459 20.8521 13.1352 21.1573 13.7179C21.4626 14.3007 21.8844 14.758 22.423 15.0949C22.9615 15.4318 23.5769 15.599 24.2718 15.599Z" fill="#4C86F9"/>
<path d="M30.476 5.7876V12.0823H33.2604V5.7876H30.476ZM38.926 12.2053C38.926 12.5446 38.9037 12.8593 38.859 13.152V13.1593C38.7523 13.8699 38.519 14.4453 38.1567 14.8855C37.643 15.5076 36.9134 15.8125 35.9704 15.7953C35.4393 15.7953 34.9702 15.6895 34.5657 15.4756C34.1612 15.2617 33.8411 14.8855 33.6078 14.3445C33.3745 13.8036 33.2604 13.0487 33.2604 12.0823H30.476V12.7216C30.476 12.8003 30.476 12.8766 30.4784 12.9528C30.5008 14.1601 30.6894 15.1559 31.0467 15.9428C31.4264 16.7788 31.9724 17.3935 32.6747 17.7869C33.377 18.1804 34.2208 18.3771 35.1986 18.3771C36.1763 18.3771 37.0424 18.1336 37.7472 17.6517C38.2237 17.3222 38.6332 16.8919 38.9632 16.3583C39.0352 16.2452 39.1022 16.1297 39.1667 16.0067C39.2213 15.9059 39.271 15.8002 39.3206 15.692C39.3429 15.6403 39.3653 15.5887 39.3876 15.5371C39.7772 14.6101 39.9708 13.5011 39.9708 12.2053H38.926ZM38.926 5.7876V15.8198L38.9608 16.3583C39.0327 16.2452 39.0997 16.1297 39.1643 16.0067C39.328 16.5673 41.6856 18.082 41.6856 18.082V5.7876H38.926Z" fill="#4C86F9"/>
<path d="M38.8391 12.0823V5.7876H41.6186V12.0823H38.8391ZM41.6186 12.0823C41.6186 13.0487 41.7352 13.8036 41.966 14.3445C42.1968 14.8855 42.517 15.2617 42.9215 15.4756C43.326 15.6895 43.795 15.7953 44.3236 15.7953C45.2666 15.8125 45.9938 15.5076 46.5075 14.8855C47.0212 14.2634 47.2768 13.3683 47.2768 12.2053H48.3191C48.3191 13.5011 48.1255 14.6101 47.7359 15.5371C47.3463 16.4641 46.8003 17.1673 46.098 17.6517C45.3957 18.1361 44.547 18.3771 43.5543 18.3771C42.5616 18.3771 41.7377 18.1804 41.0354 17.7869C40.3331 17.3935 39.7896 16.7788 39.4099 15.9428C39.0302 15.1068 38.8391 14.0322 38.8391 12.7216V12.0823H41.6186ZM47.2768 15.8198V5.7876H50.0314V18.082L47.2768 15.8198Z" fill="#F6BC00"/>
<path d="M47.3011 22.9999V5.78774H49.9069L50.0806 8.04991V22.9999H47.3011ZM54.0016 18.3772C52.9593 18.3772 52.061 18.1117 51.309 17.5781C50.5571 17.0445 49.9813 16.2945 49.5843 15.3282C49.1872 14.3619 48.9887 13.2308 48.9887 11.9349C48.9887 10.6391 49.1872 9.48836 49.5843 8.5294C49.9813 7.57043 50.5571 6.82539 51.309 6.29181C52.061 5.75824 52.9593 5.49268 54.0016 5.49268C55.1258 5.49268 56.1061 5.75824 56.9424 6.29181C57.7787 6.82539 58.4314 7.57043 58.9029 8.5294C59.3744 9.48836 59.6102 10.6244 59.6102 11.9349C59.6102 13.2455 59.3744 14.3619 58.9029 15.3282C58.4314 16.2945 57.7787 17.0445 56.9424 17.5781C56.1061 18.1117 55.1258 18.3772 54.0016 18.3772ZM53.3068 15.8692C53.9694 15.8692 54.555 15.702 55.0687 15.3651C55.5825 15.0282 55.9919 14.566 56.2972 13.9758C56.6024 13.3857 56.7563 12.7046 56.7563 11.9349C56.7563 11.1653 56.6123 10.4842 56.322 9.89408C56.0316 9.30394 55.6321 8.84413 55.1184 8.5171C54.6047 8.19007 54.0091 8.02533 53.3316 8.02533C52.7037 8.02533 52.1404 8.19007 51.6441 8.5171C51.1477 8.84413 50.7631 9.30394 50.4901 9.89408C50.2171 10.4842 50.0806 11.1653 50.0806 11.9349C50.0806 12.7046 50.2171 13.3857 50.4901 13.9758C50.7631 14.566 51.1428 15.0282 51.6317 15.3651C52.1181 15.702 52.6764 15.8692 53.3068 15.8692Z" fill="#E1432E"/>
<path d="M61.9713 18.3772C61.1449 18.3772 60.3831 18.2543 59.6882 18.0084C58.9933 17.7625 58.3977 17.4133 57.9014 16.9634C57.4051 16.5134 57.0254 15.9847 56.7598 15.3774L59.167 14.3201C59.4152 14.7799 59.7825 15.1635 60.2714 15.4757C60.7603 15.788 61.3013 15.9429 61.8969 15.9429C62.5421 15.9429 63.0583 15.8323 63.4479 15.611C63.8375 15.3897 64.0311 15.0823 64.0311 14.6889C64.0311 14.2955 63.8822 14.0201 63.5844 13.816C63.2866 13.6119 62.8647 13.4422 62.3187 13.3119L61.1524 12.9923C59.9785 12.6972 59.0603 12.2251 58.3977 11.5784C57.7351 10.9317 57.4051 10.1891 57.4051 9.35312C57.4051 8.12368 57.8071 7.17209 58.6087 6.50082C59.4102 5.82954 60.5642 5.49268 62.0706 5.49268C62.8325 5.49268 63.5298 5.60333 64.1676 5.82463C64.8054 6.04592 65.3538 6.3582 65.8179 6.759C66.282 7.1598 66.6046 7.6319 66.7857 8.17286L64.4778 9.20559C64.3115 8.79496 63.9988 8.48022 63.5348 8.25892C63.0707 8.03762 62.5595 7.92697 61.9961 7.92697C61.4328 7.92697 60.996 8.045 60.6809 8.28351C60.3657 8.52202 60.2093 8.85397 60.2093 9.27936C60.2093 9.52524 60.3508 9.75146 60.6312 9.95555C60.9116 10.1596 61.3186 10.3293 61.8472 10.4596L63.3114 10.8039C64.1229 11.0006 64.783 11.3079 65.2967 11.7259C65.8104 12.144 66.1901 12.6111 66.4383 13.1275C66.6865 13.6439 66.8106 14.1652 66.8106 14.6889C66.8106 15.4266 66.5996 16.0732 66.1777 16.6314C65.7558 17.1896 65.1801 17.6199 64.453 17.9223C63.7258 18.2248 62.897 18.3772 61.9713 18.3772Z" fill="url(#paint0_linear_2411_254)"/>
<path d="M41.6856 2.30908H38.8317V7.73092H41.6856V2.30908Z" fill="#4C86F9"/>
<path d="M36.4742 5.47109V7.68408L44.1674 7.68408V5.47109H36.4742Z" fill="#4C86F9"/>
<path d="M41.6856 4.16748H38.8317V13.0883H41.6856V4.16748Z" fill="url(#paint1_linear_2411_254)"/>
</g>
<defs>
<linearGradient id="paint0_linear_2411_254" x1="66.8106" y1="11.9349" x2="56.7598" y2="11.9349" gradientUnits="userSpaceOnUse">
<stop offset="0.345" stop-color="#4C86F9"/>
<stop offset="1" stop-color="#E1432E"/>
</linearGradient>
<linearGradient id="paint1_linear_2411_254" x1="40.2587" y1="4.16748" x2="40.2587" y2="13.0883" gradientUnits="userSpaceOnUse">
<stop offset="0.111667" stop-color="#4C86F9"/>
<stop offset="1" stop-color="#F6BC00"/>
</linearGradient>
<clipPath id="clip0_2411_254">
<rect width="66.2107" height="22.4644" fill="white" transform="translate(0.894531 0.535645)"/>
</clipPath>
</defs>
</svg>
